<svg xmlns="http://www.w3.org/2000/svg" viewBox="0 0 512 512"><rect width="512" height="512" rx="112" fill="#000"/><g fill="#6FED45" transform="translate(88.43,89.41) scale(0.6508)"><path d="M27.2667,107.53234c0,-42.49939 34.45257,-76.95196 76.95196,-76.95196c42.49939,0 76.95196,34.45257 76.95196,76.95196c0,42.49939 -34.45257,76.95196 -76.95196,76.95196c-42.49939,0 -76.95196,-34.45257 -76.95196,-76.95196z"/><path d="M37.09103,481.41962c-2.61906,0 -5.01772,-1.46616 -6.21203,-3.79707c-1.19431,-2.3309 -0.98327,-5.13423 0.54656,-7.26005l314.39694,-436.87924c1.31162,-1.8226 3.41998,-2.90289 5.66547,-2.90289h116.937c2.61906,0 5.01772,1.46616 6.21203,3.79707c1.19431,2.3309 0.98327,5.13423 -0.54656,7.26005l-314.39694,436.87924c-1.31162,1.8226 -3.41998,2.90289 -5.66547,2.90289z"/><path d="M412.82288,333.52505c-3.31585,-5.48359 -9.23958,-8.8539 -15.64757,-8.90268c-6.40799,-0.04878 -12.38234,3.23095 -15.78129,8.66343l-75.01669,119.89777c-3.55832,5.68719 -3.74919,12.85768 -0.49847,18.72612c3.25072,5.86844 9.43068,9.50992 16.13931,9.50992h147.5172c6.65837,0 12.80019,-3.58758 16.07079,-9.38732c3.2706,-5.79974 3.16253,-12.91178 -0.28278,-18.60947z"/></g></svg>