<svg xmlns="http://www.w3.org/2000/svg" viewBox="272.06 -0.66 272.99 272.99" fill="none">
  <title>YoboLabs — favicon (boxed icon)</title>
  <g fill="#000000">
    <path d="M 305.43,271.68 C 287,271.68 272.06,256.74 272.06,238.31 L 272.06,33.37 C 272.06,14.94 287,0 305.43,0 L 511.68,0 C 530.11,0 545.05,14.94 545.05,33.37 L 545.05,238.31 C 545.05,256.74 530.11,271.68 511.68,271.68 L 305.43,271.68"/>
  </g>
  <g fill="#6FED45">
    <path d="M 321.14,78.62 C 321.14,62.24 334.49,48.96 350.97,48.96 C 367.45,48.96 380.8,62.24 380.8,78.62 C 380.8,95 367.45,108.28 350.97,108.28 C 334.49,108.28 321.14,95 321.14,78.62 L 321.14,78.62"/>
    <path d="M 329.55,222.73 C 327.66,222.73 325.92,221.66 325.06,219.97 C 324.19,218.28 324.35,216.25 325.46,214.72 L 443.93,51.04 C 444.88,49.73 446.4,48.96 448.02,48.96 L 487.56,48.96 C 489.45,48.96 491.19,50.02 492.05,51.71 C 492.92,53.4 492.76,55.43 491.65,56.97 L 373.18,220.64 C 372.23,221.95 370.71,222.73 369.09,222.73 L 329.55,222.73"/>
    <path d="M 471.13,166.59 C 469.73,164.28 467.24,162.87 464.54,162.85 C 461.84,162.82 459.32,164.2 457.88,166.49 L 430.01,210.79 C 428.5,213.19 428.41,216.22 429.78,218.7 C 431.15,221.18 433.76,222.73 436.6,222.73 L 491.42,222.73 C 494.24,222.73 496.83,221.21 498.21,218.75 C 499.59,216.3 499.54,213.29 498.08,210.89 L 471.13,166.59"/>
  </g>
</svg>
