<svg xmlns="http://www.w3.org/2000/svg" xmlns:xlink="http://www.w3.org/1999/xlink" width="1714px" height="480px" viewBox="0 0 1714.285714285714 480">
    
        <g id="f207e0c1-15a7-4622-ba77-7da0129b5c05" name="New Group">
          
        <g id="ac02a0de-5fcc-4817-9b84-8c4323efcdf1" name="New Group">
          <g id="9bfdc9e9-3a96-4dfe-972c-e5f2047f7769"><path style="fill: rgb(111,237,69); fill-opacity: 1.00;  stroke: none;  stroke-linecap: butt; stroke-linejoin: miter; stroke-miterlimit: 10; stroke-width: 0;  stroke-dashoffset: 0;  fill-rule: nonzero;" d="M45.02042,175.69728c0,-19.40525 15.73107,-35.13632 35.13632,-35.13632c19.40525,0 35.13632,15.73107 35.13632,35.13632c0,19.40525 -15.73107,35.13632 -35.13632,35.13632c-19.40525,0 -35.13632,-15.73107 -35.13632,-35.13632z"></path></g>
<g id="97cd2f5f-eb34-4f59-a01d-464ea0912879"><path style="fill: rgb(111,237,69); fill-opacity: 1.00;  stroke: none;  stroke-linecap: butt; stroke-linejoin: miter; stroke-miterlimit: 10; stroke-width: 0;  stroke-dashoffset: 0;  fill-rule: nonzero;" d="M52.43943,346.41447c-1.7598,0 -3.3715,-0.98514 -4.17399,-2.55132c-0.80248,-1.56618 -0.66068,-3.44979 0.36725,-4.87817l141.39072,-196.47351c0.8813,-1.22464 2.29795,-1.95051 3.80674,-1.95051h49.69023c1.7598,0 3.3715,0.98514 4.17399,2.55132c0.80248,1.56618 0.66068,3.44979 -0.36725,4.87817l-141.39072,196.47351c-0.8813,1.22464 -2.29795,1.95051 -3.80674,1.95051z"></path></g>
<g id="6c10a27f-0a48-420e-870e-a5e400d4e5fc"><path style="fill: rgb(111,237,69); fill-opacity: 1.00;  stroke: none;  stroke-linecap: round; stroke-linejoin: miter; stroke-miterlimit: 4; stroke-width: 0;  stroke-dashoffset: 0;  fill-rule: nonzero;" d="M219.19459,275.79146c-1.11427,-1.84273 -3.1049,-2.97529 -5.25826,-2.99169c-2.15336,-0.01639 -4.161,1.08574 -5.3032,2.91129l-38.30044,61.21486c-1.19575,1.91114 -1.25989,4.32074 -0.16751,6.29279c1.09238,1.97205 3.16912,3.19575 5.42351,3.19575h75.31621c2.2375,0 4.30142,-1.20558 5.40048,-3.15455c1.09906,-1.94896 1.06275,-4.33892 -0.09503,-6.25359z"></path></g>
        </g>
      
<g id="4387bab0-f4a7-4b69-8a1c-25b614be61b5">
<g style="">
		<g id="4387bab0-f4a7-4b69-8a1c-25b614be61b5-child-0">
<path style="stroke: rgb(193,193,193); stroke-opacity: 1.00; stroke-width: 0; stroke-dasharray: none; stroke-linecap: butt; stroke-dashoffset: 0; stroke-linejoin: miter; stroke-miterlimit: 4; fill: rgb(255,255,255); fill-opacity: 1.00; fill-rule: nonzero; opacity: 1;" transform="matrix(4.027863 0 0 4.027863 684.335304 239.007412) matrix(1 0 0 1 -69.772658 0.755865)  translate(-4260.22019, -5934.82672)" d="M 4265.27 5960.03 L 4255.21 5960.03 L 4255.21 5944.25 C 4252.98 5943.69 4250.94 5942.78 4249.08 5941.54 C 4247.21 5940.30 4245.61 5938.82 4244.28 5937.09 C 4242.94 5935.37 4241.90 5933.46 4241.17 5931.36 C 4240.43 5929.27 4240.06 5927.06 4240.06 5924.74 L 4240.06 5909.62 L 4250.15 5909.62 L 4250.15 5924.74 C 4250.15 5926.12 4250.41 5927.43 4250.94 5928.66 C 4251.47 5929.89 4252.19 5930.96 4253.10 5931.87 C 4254.02 5932.79 4255.09 5933.51 4256.32 5934.04 C 4257.55 5934.56 4258.85 5934.83 4260.24 5934.83 C 4261.62 5934.83 4262.93 5934.56 4264.16 5934.04 C 4265.39 5933.51 4266.46 5932.79 4267.37 5931.87 C 4268.29 5930.96 4269.01 5929.89 4269.54 5928.66 C 4270.06 5927.43 4270.33 5926.12 4270.33 5924.74 L 4270.33 5909.62 L 4280.38 5909.62 L 4280.38 5924.74 C 4280.38 5927.06 4280.01 5929.27 4279.27 5931.36 C 4278.54 5933.46 4277.50 5935.37 4276.16 5937.09 C 4274.83 5938.82 4273.23 5940.30 4271.38 5941.54 C 4269.53 5942.78 4267.49 5943.69 4265.27 5944.25 z" stroke-linecap="round"></path>
</g>
		<g id="4387bab0-f4a7-4b69-8a1c-25b614be61b5-child-1">
<path style="stroke: rgb(193,193,193); stroke-opacity: 1.00; stroke-width: 0; stroke-dasharray: none; stroke-linecap: butt; stroke-dashoffset: 0; stroke-linejoin: miter; stroke-miterlimit: 4; fill: rgb(255,255,255); fill-opacity: 1.00; fill-rule: nonzero; opacity: 1;" transform="matrix(4.027863 0 0 4.027863 684.335304 239.007412) matrix(1 0 0 1 -24.133019 6.76758)  translate(-4301.93308, -5940.838435)" d="M 4321.16 5940.87 C 4321.16 5943.69 4320.66 5946.31 4319.65 5948.73 C 4318.64 5951.16 4317.27 5953.25 4315.54 5955.02 C 4313.80 5956.79 4311.77 5958.19 4309.44 5959.21 C 4307.11 5960.23 4304.60 5960.74 4301.93 5960.74 C 4299.28 5960.74 4296.79 5960.23 4294.46 5959.21 C 4292.13 5958.19 4290.09 5956.79 4288.35 5955.02 C 4286.60 5953.25 4285.22 5951.16 4284.21 5948.73 C 4283.21 5946.31 4282.70 5943.69 4282.70 5940.87 C 4282.70 5938.01 4283.21 5935.37 4284.21 5932.93 C 4285.22 5930.49 4286.60 5928.39 4288.35 5926.62 C 4290.09 5924.85 4292.13 5923.46 4294.46 5922.45 C 4296.79 5921.44 4299.28 5920.94 4301.93 5920.94 C 4304.60 5920.94 4307.11 5921.41 4309.44 5922.36 C 4311.77 5923.31 4313.80 5924.66 4315.54 5926.41 C 4317.27 5928.15 4318.64 5930.25 4319.65 5932.70 C 4320.66 5935.15 4321.16 5937.87 4321.16 5940.87 z M 4311.50 5940.87 C 4311.50 5939.33 4311.24 5937.93 4310.74 5936.67 C 4310.24 5935.42 4309.55 5934.34 4308.68 5933.44 C 4307.82 5932.54 4306.80 5931.84 4305.64 5931.36 C 4304.48 5930.88 4303.25 5930.64 4301.93 5930.64 C 4300.62 5930.64 4299.38 5930.88 4298.22 5931.36 C 4297.06 5931.84 4296.06 5932.54 4295.20 5933.44 C 4294.35 5934.34 4293.67 5935.42 4293.18 5936.67 C 4292.69 5937.93 4292.44 5939.33 4292.44 5940.87 C 4292.44 5942.33 4292.69 5943.67 4293.18 5944.92 C 4293.67 5946.16 4294.35 5947.24 4295.20 5948.15 C 4296.06 5949.07 4297.06 5949.79 4298.22 5950.31 C 4299.38 5950.84 4300.62 5951.10 4301.93 5951.10 C 4303.25 5951.10 4304.48 5950.86 4305.64 5950.37 C 4306.80 5949.87 4307.82 5949.18 4308.68 5948.29 C 4309.55 5947.40 4310.24 5946.32 4310.74 5945.06 C 4311.24 5943.79 4311.50 5942.40 4311.50 5940.87 z" stroke-linecap="round"></path>
</g>
		<g id="4387bab0-f4a7-4b69-8a1c-25b614be61b5-child-2">
<path style="stroke: rgb(193,193,193); stroke-opacity: 1.00; stroke-width: 0; stroke-dasharray: none; stroke-linecap: butt; stroke-dashoffset: 0; stroke-linejoin: miter; stroke-miterlimit: 4; fill: rgb(255,255,255); fill-opacity: 1.00; fill-rule: nonzero; opacity: 1;" transform="matrix(4.027863 0 0 4.027863 684.335304 239.007412) matrix(1 0 0 1 23.863537 0)  translate(-4344.92917, -5934.070855)" d="M 4364.16 5940.87 C 4364.16 5943.83 4363.66 5946.52 4362.65 5948.96 C 4361.64 5951.40 4360.27 5953.49 4358.53 5955.23 C 4356.80 5956.98 4354.77 5958.33 4352.44 5959.30 C 4350.10 5960.26 4347.60 5960.74 4344.93 5960.74 C 4342.28 5960.74 4339.79 5960.24 4337.46 5959.26 C 4335.13 5958.28 4333.09 5956.90 4331.34 5955.15 C 4329.60 5953.39 4328.22 5951.30 4327.21 5948.87 C 4326.20 5946.45 4325.70 5943.78 4325.70 5940.87 L 4325.70 5907.40 L 4335.33 5907.40 L 4335.33 5924.98 C 4335.85 5924.33 4336.47 5923.74 4337.21 5923.23 C 4337.95 5922.71 4338.75 5922.29 4339.60 5921.96 C 4340.46 5921.63 4341.34 5921.38 4342.26 5921.20 C 4343.17 5921.03 4344.06 5920.94 4344.93 5920.94 C 4347.60 5920.94 4350.10 5921.44 4352.44 5922.43 C 4354.77 5923.43 4356.80 5924.82 4358.53 5926.60 C 4360.27 5928.38 4361.64 5930.48 4362.65 5932.91 C 4363.66 5935.34 4364.16 5937.99 4364.16 5940.87 z M 4354.49 5940.87 C 4354.49 5939.42 4354.24 5938.07 4353.74 5936.81 C 4353.23 5935.56 4352.55 5934.48 4351.68 5933.56 C 4350.81 5932.65 4349.80 5931.93 4348.64 5931.42 C 4347.48 5930.90 4346.24 5930.64 4344.93 5930.64 C 4343.62 5930.64 4342.38 5930.93 4341.22 5931.50 C 4340.06 5932.08 4339.05 5932.84 4338.18 5933.79 C 4337.31 5934.74 4336.63 5935.83 4336.14 5937.06 C 4335.65 5938.29 4335.40 5939.56 4335.40 5940.87 C 4335.40 5942.33 4335.65 5943.67 4336.14 5944.92 C 4336.63 5946.16 4337.31 5947.24 4338.18 5948.15 C 4339.05 5949.07 4340.06 5949.79 4341.22 5950.31 C 4342.38 5950.84 4343.62 5951.10 4344.93 5951.10 C 4346.24 5951.10 4347.48 5950.84 4348.64 5950.31 C 4349.80 5949.79 4350.81 5949.07 4351.68 5948.15 C 4352.55 5947.24 4353.23 5946.16 4353.74 5944.92 C 4354.24 5943.67 4354.49 5942.33 4354.49 5940.87 z" stroke-linecap="round"></path>
</g>
		<g id="4387bab0-f4a7-4b69-8a1c-25b614be61b5-child-3">
<path style="stroke: rgb(193,193,193); stroke-opacity: 1.00; stroke-width: 0; stroke-dasharray: none; stroke-linecap: butt; stroke-dashoffset: 0; stroke-linejoin: miter; stroke-miterlimit: 4; fill: rgb(255,255,255); fill-opacity: 1.00; fill-rule: nonzero; opacity: 1;" transform="matrix(4.027863 0 0 4.027863 684.335304 239.007412) matrix(1 0 0 1 70.704298 6.76758)  translate(-4386.62448, -5940.838435)" d="M 4405.85 5940.87 C 4405.85 5943.69 4405.35 5946.31 4404.34 5948.73 C 4403.34 5951.16 4401.96 5953.25 4400.23 5955.02 C 4398.50 5956.79 4396.46 5958.19 4394.13 5959.21 C 4391.80 5960.23 4389.30 5960.74 4386.62 5960.74 C 4383.98 5960.74 4381.49 5960.23 4379.15 5959.21 C 4376.82 5958.19 4374.78 5956.79 4373.04 5955.02 C 4371.29 5953.25 4369.91 5951.16 4368.91 5948.73 C 4367.90 5946.31 4367.39 5943.69 4367.39 5940.87 C 4367.39 5938.01 4367.90 5935.37 4368.91 5932.93 C 4369.91 5930.49 4371.29 5928.39 4373.04 5926.62 C 4374.78 5924.85 4376.82 5923.46 4379.15 5922.45 C 4381.49 5921.44 4383.98 5920.94 4386.62 5920.94 C 4389.30 5920.94 4391.80 5921.41 4394.13 5922.36 C 4396.46 5923.31 4398.50 5924.66 4400.23 5926.41 C 4401.96 5928.15 4403.34 5930.25 4404.34 5932.70 C 4405.35 5935.15 4405.85 5937.87 4405.85 5940.87 z M 4396.19 5940.87 C 4396.19 5939.33 4395.94 5937.93 4395.43 5936.67 C 4394.93 5935.42 4394.24 5934.34 4393.37 5933.44 C 4392.51 5932.54 4391.49 5931.84 4390.33 5931.36 C 4389.17 5930.88 4387.94 5930.64 4386.62 5930.64 C 4385.31 5930.64 4384.08 5930.88 4382.92 5931.36 C 4381.76 5931.84 4380.75 5932.54 4379.89 5933.44 C 4379.04 5934.34 4378.36 5935.42 4377.87 5936.67 C 4377.38 5937.93 4377.13 5939.33 4377.13 5940.87 C 4377.13 5942.33 4377.38 5943.67 4377.87 5944.92 C 4378.36 5946.16 4379.04 5947.24 4379.89 5948.15 C 4380.75 5949.07 4381.76 5949.79 4382.92 5950.31 C 4384.08 5950.84 4385.31 5951.10 4386.62 5951.10 C 4387.94 5951.10 4389.17 5950.86 4390.33 5950.37 C 4391.49 5949.87 4392.51 5949.18 4393.37 5948.29 C 4394.24 5947.40 4394.93 5946.32 4395.43 5945.06 C 4395.94 5943.79 4396.19 5942.40 4396.19 5940.87 z" stroke-linecap="round"></path>
</g>
</g>
</g>

<g id="fac85d55-1d4c-4b98-b1ce-a3dd1bb5cedb">
<g style="">
		<g id="fac85d55-1d4c-4b98-b1ce-a3dd1bb5cedb-child-0">
<path style="stroke: rgb(193,193,193); stroke-opacity: 1.00; stroke-width: 0; stroke-dasharray: none; stroke-linecap: butt; stroke-dashoffset: 0; stroke-linejoin: miter; stroke-miterlimit: 4; fill: rgb(255,255,255); fill-opacity: 1.00; fill-rule: nonzero; opacity: 1;" transform="matrix(3.79584 0 0 3.79584 1405.375334 239.007446) matrix(1 0 0 1 -62.985325 -0.18)  translate(-145.98184, -12717.017)" d="M 130.68 12745.13 C 129.82 12745.13 129.09 12744.84 128.49 12744.27 C 127.89 12743.69 127.59 12742.95 127.59 12742.04 L 127.59 12692.00 C 127.59 12691.13 127.89 12690.40 128.49 12689.80 C 129.09 12689.20 129.82 12688.90 130.68 12688.90 C 131.55 12688.90 132.28 12689.20 132.88 12689.80 C 133.48 12690.40 133.78 12691.13 133.78 12692.00 L 133.78 12739.16 L 161.28 12739.16 C 162.15 12739.16 162.88 12739.44 163.48 12740.02 C 164.08 12740.60 164.38 12741.29 164.38 12742.11 C 164.38 12742.97 164.08 12743.69 163.48 12744.27 C 162.88 12744.84 162.15 12745.13 161.28 12745.13 z" stroke-linecap="round"></path>
</g>
		<g id="fac85d55-1d4c-4b98-b1ce-a3dd1bb5cedb-child-1">
<path style="stroke: rgb(193,193,193); stroke-opacity: 1.00; stroke-width: 0; stroke-dasharray: none; stroke-linecap: butt; stroke-dashoffset: 0; stroke-linejoin: miter; stroke-miterlimit: 4; fill: rgb(255,255,255); fill-opacity: 1.00; fill-rule: nonzero; opacity: 1;" transform="matrix(3.79584 0 0 3.79584 1405.375334 239.007446) matrix(1 0 0 1 -25.591193 8.243996)  translate(-190.53322, -12725.441)" d="M 189.71 12745.49 C 186.06 12745.49 182.79 12744.62 179.91 12742.86 C 177.03 12741.11 174.75 12738.73 173.07 12735.70 C 171.39 12732.68 170.55 12729.27 170.55 12725.48 C 170.55 12721.64 171.43 12718.20 173.18 12715.18 C 174.93 12712.16 177.32 12709.77 180.35 12708.02 C 183.37 12706.26 186.78 12705.39 190.57 12705.39 C 194.31 12705.39 197.69 12706.26 200.69 12708.02 C 203.69 12709.77 206.06 12712.16 207.81 12715.18 C 209.57 12718.20 210.47 12721.64 210.51 12725.48 L 208.07 12726.70 C 208.07 12730.25 207.26 12733.44 205.65 12736.28 C 204.05 12739.11 201.86 12741.35 199.10 12743.01 C 196.34 12744.66 193.21 12745.49 189.71 12745.49 z M 190.57 12740.02 C 193.26 12740.02 195.65 12739.39 197.73 12738.11 C 199.82 12736.84 201.48 12735.10 202.70 12732.89 C 203.93 12730.69 204.54 12728.21 204.54 12725.48 C 204.54 12722.69 203.93 12720.21 202.70 12718.03 C 201.48 12715.84 199.82 12714.10 197.73 12712.81 C 195.65 12711.51 193.26 12710.86 190.57 12710.86 C 187.93 12710.86 185.54 12711.51 183.41 12712.81 C 181.27 12714.10 179.58 12715.84 178.33 12718.03 C 177.08 12720.21 176.46 12722.69 176.46 12725.48 C 176.46 12728.21 177.08 12730.69 178.33 12732.89 C 179.58 12735.10 181.27 12736.84 183.41 12738.11 C 185.54 12739.39 187.93 12740.02 190.57 12740.02 z M 207.42 12745.13 C 206.55 12745.13 205.82 12744.86 205.22 12744.31 C 204.62 12743.75 204.32 12743.02 204.32 12742.11 L 204.32 12730.23 L 205.69 12723.97 L 210.51 12725.48 L 210.51 12742.11 C 210.51 12743.02 210.23 12743.75 209.65 12744.31 C 209.07 12744.86 208.33 12745.13 207.42 12745.13 z" stroke-linecap="round"></path>
</g>
		<g id="fac85d55-1d4c-4b98-b1ce-a3dd1bb5cedb-child-2">
<path style="stroke: rgb(193,193,193); stroke-opacity: 1.00; stroke-width: 0; stroke-dasharray: none; stroke-linecap: butt; stroke-dashoffset: 0; stroke-linejoin: miter; stroke-miterlimit: 4; fill: rgb(255,255,255); fill-opacity: 1.00; fill-rule: nonzero; opacity: 1;" transform="matrix(3.79584 0 0 3.79584 1405.375334 239.007446) matrix(1 0 0 1 23.925193 0)  translate(-241.28491, -12717.197)" d="M 241.21 12745.49 C 237.47 12745.49 234.11 12744.62 231.13 12742.86 C 228.16 12741.11 225.79 12738.74 224.04 12735.74 C 222.29 12732.74 221.39 12729.36 221.34 12725.62 L 221.34 12692.00 C 221.34 12691.04 221.62 12690.28 222.17 12689.73 C 222.72 12689.18 223.48 12688.90 224.44 12688.90 C 225.35 12688.90 226.08 12689.18 226.63 12689.73 C 227.18 12690.28 227.46 12691.04 227.46 12692.00 L 227.46 12712.59 C 229.04 12710.43 231.11 12708.69 233.65 12707.37 C 236.20 12706.05 239.03 12705.39 242.15 12705.39 C 245.80 12705.39 249.06 12706.27 251.94 12708.02 C 254.82 12709.77 257.09 12712.16 258.74 12715.18 C 260.40 12718.21 261.23 12721.61 261.23 12725.41 C 261.23 12729.25 260.35 12732.68 258.60 12735.70 C 256.85 12738.73 254.47 12741.11 251.47 12742.87 C 248.47 12744.62 245.05 12745.49 241.21 12745.49 z M 241.21 12740.02 C 243.90 12740.02 246.31 12739.37 248.45 12738.08 C 250.58 12736.78 252.26 12735.04 253.49 12732.86 C 254.71 12730.67 255.32 12728.19 255.32 12725.41 C 255.32 12722.67 254.71 12720.20 253.49 12717.99 C 252.26 12715.78 250.58 12714.04 248.45 12712.77 C 246.31 12711.50 243.90 12710.86 241.21 12710.86 C 238.62 12710.86 236.26 12711.50 234.12 12712.77 C 231.98 12714.04 230.32 12715.78 229.12 12717.99 C 227.92 12720.20 227.32 12722.67 227.32 12725.41 C 227.32 12728.19 227.92 12730.67 229.12 12732.86 C 230.32 12735.04 231.98 12736.78 234.12 12738.08 C 236.26 12739.37 238.62 12740.02 241.21 12740.02 z" stroke-linecap="round"></path>
</g>
		<g id="fac85d55-1d4c-4b98-b1ce-a3dd1bb5cedb-child-3">
<path style="stroke: rgb(193,193,193); stroke-opacity: 1.00; stroke-width: 0; stroke-dasharray: none; stroke-linecap: butt; stroke-dashoffset: 0; stroke-linejoin: miter; stroke-miterlimit: 4; fill: rgb(255,255,255); fill-opacity: 1.00; fill-rule: nonzero; opacity: 1;" transform="matrix(3.79584 0 0 3.79584 1405.375334 239.007446) matrix(1 0 0 1 65.567039 8.243996)  translate(-285.718014, -12725.441)" d="M 286.05 12745.49 C 283.08 12745.49 280.18 12745.00 277.38 12744.02 C 274.57 12743.03 272.32 12741.63 270.64 12739.81 C 270.07 12739.18 269.83 12738.46 269.92 12737.65 C 270.02 12736.83 270.40 12736.16 271.08 12735.63 C 271.84 12735.05 272.62 12734.81 273.42 12734.91 C 274.21 12735.01 274.87 12735.34 275.40 12735.92 C 276.45 12737.17 277.92 12738.16 279.79 12738.91 C 281.66 12739.65 283.72 12740.02 285.98 12740.02 C 289.29 12740.02 291.73 12739.46 293.29 12738.33 C 294.85 12737.20 295.65 12735.80 295.70 12734.12 C 295.70 12732.49 294.92 12731.12 293.36 12730.01 C 291.80 12728.91 289.15 12728.05 285.40 12727.42 C 280.56 12726.61 277.02 12725.24 274.78 12723.32 C 272.55 12721.40 271.44 12719.09 271.44 12716.41 C 271.44 12713.96 272.11 12711.92 273.45 12710.29 C 274.80 12708.65 276.56 12707.43 278.74 12706.61 C 280.93 12705.80 283.29 12705.39 285.84 12705.39 C 289.05 12705.39 291.84 12705.93 294.19 12707.01 C 296.54 12708.09 298.44 12709.54 299.88 12711.37 C 300.40 12712.04 300.63 12712.75 300.56 12713.49 C 300.49 12714.23 300.09 12714.82 299.37 12715.25 C 298.75 12715.69 298.02 12715.83 297.18 12715.69 C 296.34 12715.54 295.63 12715.16 295.05 12714.53 C 293.85 12713.24 292.48 12712.29 290.95 12711.69 C 289.41 12711.09 287.66 12710.79 285.69 12710.79 C 283.20 12710.79 281.18 12711.28 279.64 12712.27 C 278.11 12713.25 277.34 12714.51 277.34 12716.05 C 277.34 12717.10 277.62 12718.01 278.17 12718.78 C 278.72 12719.55 279.70 12720.23 281.12 12720.83 C 282.54 12721.43 284.56 12721.97 287.20 12722.45 C 290.80 12723.08 293.65 12723.95 295.74 12725.08 C 297.82 12726.21 299.31 12727.52 300.20 12729.01 C 301.09 12730.49 301.53 12732.15 301.53 12733.97 C 301.53 12736.23 300.90 12738.21 299.62 12739.91 C 298.35 12741.62 296.56 12742.97 294.26 12743.98 C 291.96 12744.99 289.22 12745.49 286.05 12745.49 z" stroke-linecap="round"></path>
</g>
</g>
</g>

        </g>
      
  </svg>